<svg xmlns="http://www.w3.org/2000/svg" viewBox="0 0 64 64">
  <defs>
    <linearGradient id="grad26" x1="0%" y1="0%" x2="0%" y2="100%">
      <stop offset="0%" style="stop-color:#ff69b4;stop-opacity:1" />
      <stop offset="100%" style="stop-color:#c2185b;stop-opacity:1" />
    </linearGradient>
  </defs>
  <path d="M32 10 C38 10, 43 14, 43 20 C43 26, 38 30, 32 30 C26 30, 21 26, 21 20 C21 14, 26 10, 32 10 Z" fill="url(#grad26)"/>
  <path d="M14 45 C14 35, 22 28, 32 28 C42 28, 50 35, 50 45 L50 54 C50 56, 48 56, 46 56 L18 56 C16 56, 14 56, 14 54 Z" fill="url(#grad26)" opacity="0.8"/>
</svg>